0 FILE sonar_radar07.io
0 Untitled Model
0 Name: sonar_radar07
0 Author: 
0 CustomBrick
0 FlexibleBrickControlPointUnitLength -1
0 FlexibleBrickLockedControlPoint 
0 NumOfBricks 53
1 16 11.599760 19.999840 -42.141350 1.000000 0.000000 0.000000 0.000000 1.000000 0.000000 0.000000 0.000000 1.000000 radar_base
0 STEP
1 16 -436.426500 -55.999880 -160.554300 0.996180 0.000000 -0.087330 0.000000 1.000000 0.000000 0.087330 0.000000 0.996180 radar_dome
0 STEP
0 NOFILE
0 FILE radar_base
0 radar_base
0 Name: radar_base
0 Author: 
0 CustomBrick
0 FlexibleBrickControlPointUnitLength -1
0 FlexibleBrickLockedControlPoint 
0 NumOfBricks 32
1 322 -121.600700 -6.002030 -6.858620 0.000000 0.000000 -1.000000 0.000000 1.000000 0.000000 1.000000 0.000000 0.000000 39790.dat
1 71 -161.200000 -6.000020 -86.319610 0.000000 1.000000 0.000000 -1.000000 0.000000 0.000000 0.000000 0.000000 1.000000 55615.dat
1 71 -161.500000 -6.000020 72.141400 0.000000 0.000000 -1.000000 -1.000000 0.000000 0.000000 0.000000 1.000000 0.000000 55615.dat
1 15 -101.000000 3.749980 -7.058600 -1.000000 0.000000 0.000000 0.000000 1.000000 0.000000 0.000000 0.000000 -1.000000 m71d95b20_202662_110634.dat
1 16 -101.000000 -55.390020 52.724800 -1.000000 0.000000 0.000000 0.000000 1.000000 0.000000 0.000000 0.000000 -1.000000 bevel_gear_12
0 STEP
1 26 -40.600780 -45.999800 -46.858420 0.000000 1.000000 0.000000 1.000000 0.000000 0.000000 0.000000 0.000000 -1.000000 32316.dat
1 0 -30.601220 -46.000020 -6.858710 1.000032 0.000000 0.000000 0.000000 -1.000032 0.000000 0.000000 0.000000 -1.000000 2780.dat
1 1 -40.601500 -46.000020 -46.858640 -1.000032 0.000000 0.000000 0.000000 1.000032 0.000000 0.000000 0.000000 -1.000000 6558.dat
1 0 -50.601720 -46.000020 -86.858620 1.000032 0.000000 0.000000 0.000000 -1.000032 0.000000 0.000000 0.000000 -1.000000 2780.dat
1 0 -0.600010 -46.000030 -26.858600 -1.000032 0.000000 0.000000 0.000000 1.000032 0.000000 0.000000 0.000000 -1.000000 39793.dat
1 19 -0.999970 -56.000180 -47.000020 0.000000 1.000031 0.000000 -1.000032 0.000000 0.000000 0.000000 0.000000 1.000000 3749.dat
1 19 -0.599990 -56.000180 -26.858600 0.000000 1.000031 0.000000 -1.000032 0.000000 0.000000 0.000000 0.000000 1.000000 3749.dat
0 STEP
1 26 -160.875100 -46.000040 -46.717180 0.000000 -0.999999 0.000000 -1.000000 0.000000 0.000000 0.000000 0.000000 -1.000000 32316.dat
1 0 -170.875000 -46.000020 -6.717230 -1.000000 0.000000 0.000000 0.000000 1.000000 0.000000 0.000000 0.000000 -1.000000 2780.dat
1 1 -160.875000 -46.000020 -46.717210 1.000000 0.000000 0.000000 0.000000 -1.000000 0.000000 0.000000 0.000000 -1.000000 6558.dat
1 0 -150.875000 -46.000020 -86.717200 -1.000000 0.000000 0.000000 0.000000 1.000000 0.000000 0.000000 0.000000 -1.000000 2780.dat
1 0 -200.274900 -46.000020 -25.858600 -1.000000 0.000000 0.000000 0.000000 1.000000 0.000000 0.000000 0.000000 -1.000000 39793.dat
1 19 -200.675000 -56.000020 -45.999980 0.000000 0.999999 0.000000 -1.000000 0.000000 0.000000 0.000000 0.000000 1.000000 3749.dat
1 19 -200.274900 -56.000020 -25.858600 0.000000 0.999999 0.000000 -1.000000 0.000000 0.000000 0.000000 0.000000 1.000000 3749.dat
0 STEP
1 16 -212.937500 -26.000040 53.142900 1.000000 0.000000 0.000000 0.000000 1.000000 0.000000 0.000000 0.000000 1.000000 marker_blue
1 16 9.000000 -26.000020 52.891400 1.000000 0.000000 0.000000 0.000000 1.000000 0.000000 0.000000 0.000000 1.000000 marker_red
1 71 -101.000000 -71.649960 -28.000000 1.000000 0.000000 0.000000 0.000000 1.000000 0.000000 0.000000 0.000000 1.000000 99773.dat
1 1 -141.000000 -57.649960 -28.000000 0.000000 -1.000000 0.000000 -1.000000 0.000000 0.000000 0.000000 0.000000 -1.000000 43093.dat
1 1 -61.000020 -56.650020 -28.775290 0.000000 -1.000000 0.000000 -1.000000 0.000000 0.000000 0.000000 0.000000 -1.000000 43093.dat
1 71 -100.726100 -105.989800 -8.975980 0.000000 0.996195 -0.087154 -1.000000 0.000000 0.000000 0.000000 0.087154 0.996195 32073.dat
1 19 -100.726000 -58.999840 -8.975960 0.996195 -0.087156 0.000000 0.000000 0.000000 -1.000000 0.087156 0.996194 0.000000 6589.dat
0 STEP
0 NOFILE
0 FILE radar_dome
0 radar_dome
0 Name: radar_dome
0 Author: 
0 CustomBrick
0 FlexibleBrickControlPointUnitLength -1
0 FlexibleBrickLockedControlPoint 
0 NumOfBricks 21
1 0 356.000000 -50.000000 101.000000 1.000000 0.000000 0.000000 0.000000 -1.000000 0.000000 0.000000 0.000000 -1.000000 37316c01.dat
1 0 396.000000 -60.000000 79.000000 0.000000 1.000000 0.000000 -1.000000 0.000000 0.000000 0.000000 0.000000 1.000000 2780.dat
1 0 316.000000 -60.000000 79.000000 0.000000 1.000000 0.000000 -1.000000 0.000000 0.000000 0.000000 0.000000 1.000000 2780.dat
1 0 316.000000 -80.000000 -1.000000 0.000000 1.000000 0.000000 -1.000000 0.000000 0.000000 0.000000 0.000000 1.000000 2780.dat
1 0 316.000000 -80.000000 -41.000000 0.000000 1.000000 0.000000 -1.000000 0.000000 0.000000 0.000000 0.000000 1.000000 2780.dat
1 0 396.000000 -80.000000 -1.000000 0.000000 -1.000000 0.000000 -1.000000 0.000000 0.000000 0.000000 0.000000 -1.000000 2780.dat
1 322 355.999900 -29.375060 79.000010 0.000000 0.000000 -1.000000 0.000000 1.000000 0.000000 1.000000 0.000000 0.000000 32524.dat
1 0 416.000000 -40.000020 79.000000 0.000000 0.000000 -1.000000 -1.000000 0.000000 0.000000 0.000000 1.000000 0.000000 2780.dat
1 0 356.000000 -89.999980 -20.999890 -1.000000 0.000000 0.000000 0.000000 0.000000 -1.000000 0.000000 -1.000000 0.000000 37308c01.dat
1 71 296.000000 -49.999980 79.000000 0.000000 0.000000 -1.000000 0.000000 -1.000000 0.000000 -1.000000 0.000000 0.000000 87082.dat
1 71 416.000000 -50.000020 79.000000 0.000000 0.000000 -1.000000 0.000000 -1.000000 0.000000 -1.000000 0.000000 0.000000 87082.dat
1 26 356.000000 -50.000000 79.000000 0.000000 0.000000 1.000000 0.000000 1.000000 0.000000 -1.000000 0.000000 0.000000 32316.dat
1 1 375.999900 -30.000020 79.000000 0.000000 -1.000000 0.000000 1.000000 0.000000 0.000000 0.000000 0.000000 1.000000 6558.dat
1 1 336.000000 -30.000010 79.000000 0.000000 -1.000000 0.000000 1.000000 0.000000 0.000000 0.000000 0.000000 1.000000 6558.dat
1 322 316.000000 -70.000000 19.000000 1.000000 0.000000 0.000000 0.000000 1.000000 0.000000 0.000000 0.000000 1.000000 32524.dat
1 322 396.000000 -70.000000 19.000000 1.000000 0.000000 0.000000 0.000000 1.000000 0.000000 0.000000 0.000000 1.000000 32524.dat
1 0 396.000000 -80.000000 -41.000000 0.000000 -1.000000 0.000000 -1.000000 0.000000 0.000000 0.000000 0.000000 -1.000000 2780.dat
1 71 316.000000 -90.000000 -21.000000 0.000000 0.000000 -1.000000 -1.000000 0.000000 0.000000 0.000000 1.000000 0.000000 48989.dat
1 71 396.000000 -90.000000 -21.000000 0.000000 0.000000 -1.000000 -1.000000 0.000000 0.000000 0.000000 1.000000 0.000000 48989.dat
1 0 295.999900 -38.375010 79.000000 0.000000 1.000000 0.000000 -1.000000 0.000000 0.000000 0.000000 0.000000 1.000000 2780.dat
1 0 356.000000 -9.544710 79.000010 1.000000 0.000000 0.000000 0.000000 0.000000 -1.000000 0.000000 1.000000 0.000000 32498.dat
0 NOFILE
0 FILE bevel_gear_12
0 bevel_gear_12
0 Name: bevel_gear_12
0 Author: 
0 CustomBrick
0 FlexibleBrickControlPointUnitLength -1
0 FlexibleBrickLockedControlPoint 
0 NumOfBricks 3
1 4 0.000000 -20.000000 0.000000 0.000000 0.000000 1.000000 -1.000000 0.000000 0.000000 0.000000 -1.000000 0.000000 32062.dat
1 0 0.000000 -30.000000 -0.000010 1.000000 0.000000 0.000000 0.000000 0.000000 1.000000 0.000000 -1.000000 0.000000 32270.dat
1 322 0.249980 59.390000 -0.035430 1.000000 0.000000 0.000000 0.000000 1.000000 0.000000 0.000000 0.000000 1.000000 m71d95b20_202662_032825.dat
0 NOFILE
0 FILE marker_blue
0 marker_blue
0 Name: marker_blue
0 Author: 
0 CustomBrick
0 FlexibleBrickControlPointUnitLength -1
0 FlexibleBrickLockedControlPoint 
0 NumOfBricks 3
0 STEP
1 1 12.337480 -53.999980 -80.001500 0.000000 0.000000 1.000000 0.000000 1.000000 0.000000 -1.000000 0.000000 0.000000 39789.dat
1 1 12.000000 -62.000000 -110.000000 -1.000000 0.000000 0.000000 0.000000 1.000000 0.000000 0.000000 0.000000 -1.000000 3069b.dat
1 1 12.337480 -61.999980 -90.001510 -1.000000 0.000000 0.000000 0.000000 1.000000 0.000000 0.000000 0.000000 -1.000000 3069b.dat
0 STEP
0 NOFILE
0 FILE marker_red
0 marker_red
0 Name: marker_red
0 Author: 
0 CustomBrick
0 FlexibleBrickControlPointUnitLength -1
0 FlexibleBrickLockedControlPoint 
0 NumOfBricks 3
0 STEP
1 4 -10.399990 -54.000000 -79.750000 0.000000 0.000000 -1.000000 0.000000 1.000000 0.000000 1.000000 0.000000 0.000000 39789.dat
1 4 -10.400000 -62.000000 -109.750000 -1.000000 0.000000 0.000000 0.000000 1.000000 0.000000 0.000000 0.000000 -1.000000 3069b.dat
1 4 -10.399990 -62.000000 -89.750000 -1.000000 0.000000 0.000000 0.000000 1.000000 0.000000 0.000000 0.000000 -1.000000 3069b.dat
0 STEP
0 NOFILE
