0 FILE sonar_radar10.io
0 Untitled Model
0 Name: sonar_radar10
0 Author: 
0 CustomBrick
0 FlexibleBrickControlPointUnitLength -1
0 FlexibleBrickLockedControlPoint 
0 NumOfBricks 78
1 16 11.599760 19.999840 -42.141350 1.000000 0.000000 0.000000 0.000000 1.000000 0.000000 0.000000 0.000000 1.000000 radar_base
0 STEP
1 16 -122.365500 24.064820 163.363700 1.000000 0.000000 0.000000 0.000000 1.000000 0.000000 0.000000 0.000000 1.000000 ground_plate
0 STEP
1 16 -89.126290 -50.989960 -51.117320 0.996195 0.000000 -0.087154 0.000000 1.000000 0.000000 0.087154 0.000000 0.996195 bevel_gear_36
0 STEP
1 16 -436.426500 -47.999880 -160.554300 0.996180 0.000000 -0.087330 0.000000 1.000000 0.000000 0.087330 0.000000 0.996180 radar_dome
0 STEP
1 16 -90.002570 24.750130 206.022300 1.000000 0.000000 0.000000 0.000000 1.000000 0.000000 0.000000 0.000000 1.000000 obstacle_wall_a
1 16 49.999940 25.000000 330.000100 1.000000 0.000000 0.000000 0.000000 1.000000 0.000000 0.000000 0.000000 1.000000 obstacle_wall_b
0 STEP
1 16 -250.448900 -15.997940 -128.333600 0.000000 0.000000 -1.000000 0.000000 1.000000 0.000000 1.000000 0.000000 0.000000 starter
0 STEP
0 NOFILE
0 FILE radar_base
0 radar_base
0 Name: radar_base
0 Author: 
0 CustomBrick
0 FlexibleBrickControlPointUnitLength -1
0 FlexibleBrickLockedControlPoint 
0 NumOfBricks 31
1 322 -121.600700 -6.002030 -6.858620 0.000000 0.000000 -1.000000 0.000000 1.000000 0.000000 1.000000 0.000000 0.000000 39790.dat
1 71 -161.200000 -6.000020 -86.319610 0.000000 1.000000 0.000000 -1.000000 0.000000 0.000000 0.000000 0.000000 1.000000 55615.dat
1 71 -161.500000 -6.000020 72.141400 0.000000 0.000000 -1.000000 -1.000000 0.000000 0.000000 0.000000 1.000000 0.000000 55615.dat
1 15 -101.000000 3.749980 -7.058600 -1.000000 0.000000 0.000000 0.000000 1.000000 0.000000 0.000000 0.000000 -1.000000 m71d95b20_202662_110634.dat
1 16 -101.000000 -55.390020 52.724800 -1.000000 0.000000 0.000000 0.000000 1.000000 0.000000 0.000000 0.000000 -1.000000 bevel_gear_12
0 STEP
1 26 -40.600780 -45.999800 -46.858420 0.000000 1.000000 0.000000 1.000000 0.000000 0.000000 0.000000 0.000000 -1.000000 32316.dat
1 0 -30.601220 -46.000020 -6.858710 1.000032 0.000000 0.000000 0.000000 -1.000032 0.000000 0.000000 0.000000 -1.000000 2780.dat
1 1 -40.601500 -46.000020 -46.858640 -1.000032 0.000000 0.000000 0.000000 1.000032 0.000000 0.000000 0.000000 -1.000000 6558.dat
1 0 -50.601720 -46.000020 -86.858620 1.000032 0.000000 0.000000 0.000000 -1.000032 0.000000 0.000000 0.000000 -1.000000 2780.dat
1 0 -0.600010 -46.000030 -26.858600 -1.000032 0.000000 0.000000 0.000000 1.000032 0.000000 0.000000 0.000000 -1.000000 39793.dat
1 19 -0.999970 -56.000180 -47.000020 0.000000 1.000031 0.000000 -1.000032 0.000000 0.000000 0.000000 0.000000 1.000000 3749.dat
1 19 -0.599990 -56.000180 -26.858600 0.000000 1.000031 0.000000 -1.000032 0.000000 0.000000 0.000000 0.000000 1.000000 3749.dat
0 STEP
1 26 -160.875100 -46.000040 -46.717180 0.000000 -0.999999 0.000000 -1.000000 0.000000 0.000000 0.000000 0.000000 -1.000000 32316.dat
1 0 -170.875000 -46.000020 -6.717230 -1.000000 0.000000 0.000000 0.000000 1.000000 0.000000 0.000000 0.000000 -1.000000 2780.dat
1 1 -160.875000 -46.000020 -46.717210 1.000000 0.000000 0.000000 0.000000 -1.000000 0.000000 0.000000 0.000000 -1.000000 6558.dat
1 0 -150.875000 -46.000020 -86.717200 -1.000000 0.000000 0.000000 0.000000 1.000000 0.000000 0.000000 0.000000 -1.000000 2780.dat
1 0 -200.274900 -46.000020 -25.858600 -1.000000 0.000000 0.000000 0.000000 1.000000 0.000000 0.000000 0.000000 -1.000000 39793.dat
1 19 -200.675000 -56.000020 -45.999980 0.000000 0.999999 0.000000 -1.000000 0.000000 0.000000 0.000000 0.000000 1.000000 3749.dat
1 19 -200.274900 -56.000020 -25.858600 0.000000 0.999999 0.000000 -1.000000 0.000000 0.000000 0.000000 0.000000 1.000000 3749.dat
0 STEP
1 16 -212.937500 -26.000040 53.142900 1.000000 0.000000 0.000000 0.000000 1.000000 0.000000 0.000000 0.000000 1.000000 marker_right
1 16 9.000000 -26.000020 52.891400 1.000000 0.000000 0.000000 0.000000 1.000000 0.000000 0.000000 0.000000 1.000000 marker_left
1 71 -101.000000 -71.212460 -28.000000 1.000000 0.000000 0.000000 0.000000 1.000000 0.000000 0.000000 0.000000 1.000000 99773.dat
1 1 -141.000000 -56.649960 -28.000000 0.000000 -1.000000 0.000000 -1.000000 0.000000 0.000000 0.000000 0.000000 -1.000000 43093.dat
1 1 -61.000020 -56.650020 -28.775290 0.000000 -1.000000 0.000000 -1.000000 0.000000 0.000000 0.000000 0.000000 -1.000000 43093.dat
1 71 -261.600700 -26.000020 -86.858630 -1.000000 0.000000 0.000000 0.000000 0.000000 1.000000 0.000000 1.000000 0.000000 48989.dat
0 STEP
0 NOFILE
0 FILE ground_plate
0 ground_plate
0 Name: ground_plate
0 Author: 
0 CustomBrick
0 FlexibleBrickControlPointUnitLength -1
0 FlexibleBrickLockedControlPoint 
0 NumOfBricks 11
1 14 52.363060 -11.314700 147.636500 0.000000 0.000000 1.000000 0.000000 1.000000 0.000000 -1.000000 0.000000 0.000000 39369.dat
1 0 -127.635400 -33.315010 -152.363600 0.000000 1.000000 0.000000 -1.000000 0.000000 0.000000 0.000000 0.000000 1.000000 18651.dat
1 0 -127.635400 -33.315010 -112.363600 0.000000 1.000000 0.000000 -1.000000 0.000000 0.000000 0.000000 0.000000 1.000000 18651.dat
1 322 -127.636900 -29.900000 -32.363630 1.000000 0.000000 0.000000 0.000000 1.000000 0.000000 0.000000 0.000000 1.000000 41239.dat
1 0 152.364600 -33.315010 -152.363600 0.000000 1.000000 0.000000 -1.000000 0.000000 0.000000 0.000000 0.000000 1.000000 18651.dat
1 0 152.364500 -33.315010 -112.363600 0.000000 1.000001 0.000000 -1.000001 0.000000 0.000000 0.000000 0.000000 1.000000 18651.dat
1 322 152.363100 -29.900000 -32.363630 1.000001 0.000000 0.000000 0.000000 1.000001 0.000000 0.000000 0.000000 1.000000 41239.dat
1 0 -127.636900 -20.025000 47.636380 0.000000 -1.000000 0.000000 -1.000000 0.000000 0.000000 0.000000 0.000000 -1.000000 2780.dat
1 0 -127.636900 -21.312500 87.636370 0.000000 -1.000000 0.000000 -1.000000 0.000000 0.000000 0.000000 0.000000 -1.000000 2780.dat
1 0 152.363100 -20.000000 47.636380 0.000000 -1.000000 0.000000 -1.000000 0.000000 0.000000 0.000000 0.000000 -1.000000 2780.dat
1 0 152.363100 -20.000000 87.636370 0.000000 -1.000000 0.000000 -1.000000 0.000000 0.000000 0.000000 0.000000 -1.000000 2780.dat
0 NOFILE
0 FILE bevel_gear_36
0 bevel_gear_36
0 Name: bevel_gear_36
0 Author: 
0 CustomBrick
0 FlexibleBrickControlPointUnitLength -1
0 FlexibleBrickLockedControlPoint 
0 NumOfBricks 3
1 0 -0.247670 -15.159960 0.657090 1.000000 0.000001 0.000000 0.000000 0.000000 -1.000000 -0.000001 1.000000 0.000000 32498.dat
1 19 -1.001520 13.192900 1.203910 1.000000 -0.000002 0.000000 0.000000 0.000000 -1.000000 0.000002 0.999999 0.000000 6589.dat
1 71 -1.000930 -33.799860 1.211660 0.000000 1.000000 0.000000 -1.000000 0.000000 0.000000 0.000000 0.000000 1.000000 32073.dat
0 NOFILE
0 FILE radar_dome
0 radar_dome
0 Name: radar_dome
0 Author: 
0 CustomBrick
0 FlexibleBrickControlPointUnitLength -1
0 FlexibleBrickLockedControlPoint 
0 NumOfBricks 20
1 0 355.000200 -59.625000 101.991500 1.000000 0.000000 0.000000 0.000000 -1.000000 0.000000 0.000000 0.000000 -1.000000 37316c01.dat
1 0 395.000200 -69.625010 79.991460 0.000000 1.000000 0.000000 -1.000000 0.000000 0.000000 0.000000 0.000000 1.000000 2780.dat
1 0 315.000200 -69.625010 79.991460 0.000000 1.000000 0.000000 -1.000000 0.000000 0.000000 0.000000 0.000000 1.000000 2780.dat
1 0 315.000200 -89.625010 -0.008540 0.000000 1.000000 0.000000 -1.000000 0.000000 0.000000 0.000000 0.000000 1.000000 2780.dat
1 0 315.000200 -89.625010 -40.008540 0.000000 1.000000 0.000000 -1.000000 0.000000 0.000000 0.000000 0.000000 1.000000 2780.dat
1 0 395.000200 -89.625010 -0.008540 0.000000 -1.000000 0.000000 -1.000000 0.000000 0.000000 0.000000 0.000000 -1.000000 2780.dat
1 322 355.000100 -39.000060 79.991460 0.000000 0.000000 -1.000000 0.000000 1.000000 0.000000 1.000000 0.000000 0.000000 32524.dat
1 0 415.000200 -49.625020 79.991460 0.000000 0.000000 -1.000000 -1.000000 0.000000 0.000000 0.000000 1.000000 0.000000 2780.dat
1 0 355.000200 -99.624980 -20.008440 -1.000000 0.000000 0.000000 0.000000 0.000000 -1.000000 0.000000 -1.000000 0.000000 37308c01.dat
1 71 295.000200 -59.624990 79.991460 0.000000 0.000000 -1.000000 0.000000 -1.000000 0.000000 -1.000000 0.000000 0.000000 87082.dat
1 71 415.000200 -59.625020 79.991460 0.000000 0.000000 -1.000000 0.000000 -1.000000 0.000000 -1.000000 0.000000 0.000000 87082.dat
1 26 355.000200 -59.625000 79.991460 0.000000 0.000000 1.000000 0.000000 1.000000 0.000000 -1.000000 0.000000 0.000000 32316.dat
1 1 375.000100 -39.625020 79.991460 0.000000 -1.000000 0.000000 1.000000 0.000000 0.000000 0.000000 0.000000 1.000000 6558.dat
1 1 335.000200 -39.625020 79.991460 0.000000 -1.000000 0.000000 1.000000 0.000000 0.000000 0.000000 0.000000 1.000000 6558.dat
1 322 315.000200 -79.625010 19.991460 1.000000 0.000000 0.000000 0.000000 1.000000 0.000000 0.000000 0.000000 1.000000 32524.dat
1 322 395.000200 -79.625010 19.991460 1.000000 0.000000 0.000000 0.000000 1.000000 0.000000 0.000000 0.000000 1.000000 32524.dat
1 0 395.000200 -89.625010 -40.008540 0.000000 -1.000000 0.000000 -1.000000 0.000000 0.000000 0.000000 0.000000 -1.000000 2780.dat
1 71 315.000200 -99.625010 -20.008540 0.000000 0.000000 -1.000000 -1.000000 0.000000 0.000000 0.000000 1.000000 0.000000 48989.dat
1 71 395.000200 -99.625010 -20.008540 0.000000 0.000000 -1.000000 -1.000000 0.000000 0.000000 0.000000 1.000000 0.000000 48989.dat
1 0 295.000100 -48.000020 79.991460 0.000000 1.000000 0.000000 -1.000000 0.000000 0.000000 0.000000 0.000000 1.000000 2780.dat
0 STEP
0 STEP
0 NOFILE
0 FILE obstacle_wall_a
0 obstacle_wall_a
0 Name: obstacle_wall_a
0 Author: 
0 CustomBrick
0 FlexibleBrickControlPointUnitLength -1
0 FlexibleBrickLockedControlPoint 
0 NumOfBricks 5
1 14 0.000000 -111.000000 -9.910060 0.000000 0.000000 1.000000 1.000000 0.000000 0.000000 0.000000 1.000000 0.000000 3036.dat
1 0 0.000000 -50.000000 -2.022460 1.000000 0.000000 0.000000 0.000000 0.000000 -1.000000 0.000000 1.000000 0.000000 3738.dat
1 0 -19.999980 -30.000000 23.977510 0.000000 1.000000 0.000000 1.000000 0.000000 0.000000 0.000000 0.000000 -1.000000 18651.dat
1 0 20.000000 -30.000000 23.977510 0.000000 1.000000 0.000000 1.000000 0.000000 0.000000 0.000000 0.000000 -1.000000 18651.dat
1 71 0.000000 -50.000000 23.977510 0.000000 -1.000000 0.000000 1.000000 0.000000 0.000000 0.000000 0.000000 1.000000 48989.dat
0 NOFILE
0 FILE obstacle_wall_b
0 obstacle_wall_b
0 Name: obstacle_wall_b
0 Author: 
0 CustomBrick
0 FlexibleBrickControlPointUnitLength -1
0 FlexibleBrickLockedControlPoint 
0 NumOfBricks 3
1 0 0.000030 -150.000000 0.000000 0.000000 0.000000 -1.000000 -1.000000 0.000000 0.000000 0.000000 1.000000 0.000000 15458.dat
1 0 20.000000 -30.000000 0.000000 0.000000 0.000000 -1.000000 1.000000 0.000000 0.000000 0.000000 -1.000000 0.000000 18651.dat
1 0 -20.000000 -30.000010 0.000000 0.000000 0.000000 -1.000000 1.000000 0.000000 0.000000 0.000000 -1.000000 0.000000 18651.dat
0 NOFILE
0 FILE starter
0 starter
0 Name: starter
0 Author: 
0 CustomBrick
0 FlexibleBrickControlPointUnitLength -1
0 FlexibleBrickLockedControlPoint 
0 NumOfBricks 5
1 16 -1.666780 -100.874700 0.023030 1.000000 0.000000 0.000000 0.000000 1.000000 0.000000 0.000000 0.000000 1.000000 press_block
1 15 -1.676010 -0.645710 0.551610 -1.000000 0.000000 0.000000 0.000000 1.000000 0.000000 0.000000 0.000000 -1.000000 m71d95b20_2026629_065423.dat
1 0 -1.966450 -96.001670 -0.398860 1.000000 0.000000 0.000000 0.000000 1.000000 0.000000 0.000000 0.000000 1.000000 m71d95b20_2026629_070814.dat
0 NOFILE
0 FILE bevel_gear_12
0 bevel_gear_12
0 Name: bevel_gear_12
0 Author: 
0 CustomBrick
0 FlexibleBrickControlPointUnitLength -1
0 FlexibleBrickLockedControlPoint 
0 NumOfBricks 3
1 4 0.000000 -20.000000 0.000000 0.000000 0.000000 1.000000 -1.000000 0.000000 0.000000 0.000000 -1.000000 0.000000 32062.dat
1 0 0.000000 -30.000000 -0.000010 1.000000 0.000000 0.000000 0.000000 0.000000 1.000000 0.000000 -1.000000 0.000000 32270.dat
1 322 0.249980 59.390000 -0.035430 1.000000 0.000000 0.000000 0.000000 1.000000 0.000000 0.000000 0.000000 1.000000 m71d95b20_202662_032825.dat
0 NOFILE
0 FILE marker_right
0 marker_right
0 Name: marker_right
0 Author: 
0 CustomBrick
0 FlexibleBrickControlPointUnitLength -1
0 FlexibleBrickLockedControlPoint 
0 NumOfBricks 3
0 STEP
1 1 12.337480 -53.999980 -80.001500 0.000000 0.000000 1.000000 0.000000 1.000000 0.000000 -1.000000 0.000000 0.000000 39789.dat
1 1 12.300000 -62.000000 -110.000000 -1.000000 0.000000 0.000000 0.000000 1.000000 0.000000 0.000000 0.000000 -1.000000 3069b.dat
1 1 12.337480 -61.999980 -90.001510 -1.000000 0.000000 0.000000 0.000000 1.000000 0.000000 0.000000 0.000000 -1.000000 3069b.dat
0 STEP
0 NOFILE
0 FILE marker_left
0 marker_left
0 Name: marker_left
0 Author: 
0 CustomBrick
0 FlexibleBrickControlPointUnitLength -1
0 FlexibleBrickLockedControlPoint 
0 NumOfBricks 3
0 STEP
1 2 -10.399990 -54.000000 -79.750000 0.000000 0.000000 -1.000000 0.000000 1.000000 0.000000 1.000000 0.000000 0.000000 39789.dat
1 2 -10.400000 -62.000000 -109.750000 -1.000000 0.000000 0.000000 0.000000 1.000000 0.000000 0.000000 0.000000 -1.000000 3069b.dat
1 2 -10.399990 -62.000000 -89.750000 -1.000000 0.000000 0.000000 0.000000 1.000000 0.000000 0.000000 0.000000 -1.000000 3069b.dat
0 STEP
0 NOFILE
0 FILE press_block
0 press_block
0 Name: press_block
0 Author: 
0 CustomBrick
0 FlexibleBrickControlPointUnitLength -1
0 FlexibleBrickLockedControlPoint 
0 NumOfBricks 3
1 15 0.000000 -64.329410 0.000000 1.000000 0.000000 0.000000 0.000000 1.000000 0.000000 0.000000 0.000000 1.000000 18674.dat
1 15 0.000000 -56.329410 0.000000 1.000000 0.000000 0.000000 0.000000 1.000000 0.000000 0.000000 0.000000 1.000000 3941.dat
1 14 0.000000 -30.000000 0.000000 0.000000 -1.000000 0.000000 1.000000 0.000000 0.000000 0.000000 0.000000 1.000000 4519.dat
0 NOFILE
