0 FILE sonar_radar06.io
0 Untitled Model
0 Name: sonar_radar06
0 Author: 
0 CustomBrick
0 FlexibleBrickControlPointUnitLength -1
0 FlexibleBrickLockedControlPoint 
1 16 -226.600000 20.000020 -55.858600 -1.000000 0.000000 0.000000 0.000000 1.000000 0.000000 0.000000 0.000000 -1.000000 radar_base
0 STEP
1 16 229.399800 -35.999880 -29.001460 -1.000000 0.000000 0.000000 0.000000 1.000000 0.000000 0.000000 0.000000 -1.000000 radar_dome
0 STEP
0 NOFILE
0 FILE radar_base
0 radar_base
0 Name: radar_base
0 Author: 
0 CustomBrick
0 FlexibleBrickControlPointUnitLength -1
0 FlexibleBrickLockedControlPoint 
1 322 -119.600700 -6.002030 -6.858620 0.000000 0.000000 -1.000000 0.000000 1.000000 0.000000 1.000000 0.000000 0.000000 39790.dat
1 71 -159.200000 -6.000020 -86.319610 0.000000 1.000000 0.000000 -1.000000 0.000000 0.000000 0.000000 0.000000 1.000000 55615.dat
1 71 -159.500000 -6.000020 72.141400 0.000000 0.000000 -1.000000 -1.000000 0.000000 0.000000 0.000000 1.000000 0.000000 55615.dat
1 4 -8.000000 -46.000020 74.041400 1.000000 0.000000 0.000000 0.000000 1.000000 0.000000 0.000000 0.000000 1.000000 32062.dat
1 71 -40.825000 -46.000020 74.141400 -1.000000 0.000000 0.000000 0.000000 -1.000000 0.000000 0.000000 0.000000 1.000000 32054.dat
1 71 -20.400010 -46.000020 33.141400 1.000000 0.000000 0.000000 0.000000 1.000000 0.000000 0.000000 0.000000 1.000000 32073.dat
1 71 -178.000000 -46.000060 33.142900 1.000000 0.000000 0.000000 0.000000 1.000000 0.000000 0.000000 0.000000 1.000000 32073.dat
1 4 -191.000000 -46.000020 73.141400 -1.000000 0.000000 0.000000 0.000000 1.000000 0.000000 0.000000 0.000000 -1.000000 32062.dat
1 71 -160.400000 -46.000020 74.141400 1.000000 0.000000 0.000000 0.000000 -1.000000 0.000000 0.000000 0.000000 -1.000000 32054.dat
1 15 -99.000010 3.749980 -7.058600 -1.000000 0.000000 0.000000 0.000000 1.000000 0.000000 0.000000 0.000000 -1.000000 m71d95b20_202662_110634.dat
1 322 -99.250000 3.999980 52.760220 -1.000000 0.000000 0.000000 0.000000 1.000000 0.000000 0.000000 0.000000 -1.000000 m71d95b20_202662_032825.dat
0 STEP
1 16 -210.937500 -26.000040 53.142900 1.000000 0.000000 0.000000 0.000000 1.000000 0.000000 0.000000 0.000000 1.000000 marker_blue
1 16 11.000000 -26.000020 52.891400 1.000000 0.000000 0.000000 0.000000 1.000000 0.000000 0.000000 0.000000 1.000000 marker_red
0 STEP
0 NOFILE
0 FILE radar_dome
0 radar_dome
0 Name: radar_dome
0 Author: 
0 CustomBrick
0 FlexibleBrickControlPointUnitLength -1
0 FlexibleBrickLockedControlPoint 
0 NumOfBricks 20
1 0 356.000000 -50.000000 101.000000 1.000000 0.000000 0.000000 0.000000 -1.000000 0.000000 0.000000 0.000000 -1.000000 37316c01.dat
1 0 396.000000 -60.000000 79.000000 0.000000 1.000000 0.000000 -1.000000 0.000000 0.000000 0.000000 0.000000 1.000000 2780.dat
1 0 316.000000 -60.000000 79.000000 0.000000 1.000000 0.000000 -1.000000 0.000000 0.000000 0.000000 0.000000 1.000000 2780.dat
1 0 316.000000 -80.000000 -1.000000 0.000000 1.000000 0.000000 -1.000000 0.000000 0.000000 0.000000 0.000000 1.000000 2780.dat
1 0 316.000000 -80.000000 -41.000000 0.000000 1.000000 0.000000 -1.000000 0.000000 0.000000 0.000000 0.000000 1.000000 2780.dat
1 0 396.000000 -80.000000 -1.000000 0.000000 -1.000000 0.000000 -1.000000 0.000000 0.000000 0.000000 0.000000 -1.000000 2780.dat
1 322 355.999900 -30.000010 79.000000 0.000000 0.000000 -1.000000 0.000000 1.000000 0.000000 1.000000 0.000000 0.000000 32524.dat
1 0 416.000000 -40.000020 79.000000 0.000000 0.000000 -1.000000 -1.000000 0.000000 0.000000 0.000000 1.000000 0.000000 2780.dat
1 0 356.000000 -89.999980 -20.999890 -1.000000 0.000000 0.000000 0.000000 0.000000 -1.000000 0.000000 -1.000000 0.000000 37308c01.dat
1 71 296.000000 -49.999980 79.000000 0.000000 0.000000 -1.000000 0.000000 -1.000000 0.000000 -1.000000 0.000000 0.000000 87082.dat
1 71 416.000000 -50.000020 79.000000 0.000000 0.000000 -1.000000 0.000000 -1.000000 0.000000 -1.000000 0.000000 0.000000 87082.dat
1 26 356.000000 -50.000000 79.000000 0.000000 0.000000 1.000000 0.000000 1.000000 0.000000 -1.000000 0.000000 0.000000 32316.dat
1 1 375.999900 -30.000020 79.000000 0.000000 -1.000000 0.000000 1.000000 0.000000 0.000000 0.000000 0.000000 1.000000 6558.dat
1 1 336.000000 -30.000010 79.000000 0.000000 -1.000000 0.000000 1.000000 0.000000 0.000000 0.000000 0.000000 1.000000 6558.dat
1 322 316.000000 -70.000000 19.000000 1.000000 0.000000 0.000000 0.000000 1.000000 0.000000 0.000000 0.000000 1.000000 32524.dat
1 322 396.000000 -70.000000 19.000000 1.000000 0.000000 0.000000 0.000000 1.000000 0.000000 0.000000 0.000000 1.000000 32524.dat
1 0 396.000000 -80.000000 -41.000000 0.000000 -1.000000 0.000000 -1.000000 0.000000 0.000000 0.000000 0.000000 -1.000000 2780.dat
1 71 316.000000 -90.000000 -21.000000 0.000000 0.000000 -1.000000 -1.000000 0.000000 0.000000 0.000000 1.000000 0.000000 48989.dat
1 71 396.000000 -90.000000 -21.000000 0.000000 0.000000 -1.000000 -1.000000 0.000000 0.000000 0.000000 1.000000 0.000000 48989.dat
1 0 295.999900 -38.375010 79.000000 0.000000 1.000000 0.000000 -1.000000 0.000000 0.000000 0.000000 0.000000 1.000000 2780.dat
0 NOFILE
0 FILE marker_blue
0 marker_blue
0 Name: marker_blue
0 Author: 
0 CustomBrick
0 FlexibleBrickControlPointUnitLength -1
0 FlexibleBrickLockedControlPoint 
0 NumOfBricks 2
1 71 -9.937500 -20.000000 -20.000000 0.000000 0.000000 1.000000 0.000000 1.000000 0.000000 -1.000000 0.000000 0.000000 3713.dat
0 STEP
1 1 -0.062500 -20.000000 0.000000 0.000000 1.000000 0.000000 0.000000 0.000000 -1.000000 -1.000000 0.000000 0.000000 39789.dat
0 STEP
0 NOFILE
0 FILE marker_red
0 marker_red
0 Name: marker_red
0 Author: 
0 CustomBrick
0 FlexibleBrickControlPointUnitLength -1
0 FlexibleBrickLockedControlPoint 
1 71 10.400000 -20.300000 -20.250000 0.000000 0.000000 -1.000000 0.000000 1.000000 0.000000 1.000000 0.000000 0.000000 3713.dat
0 STEP
1 4 -0.399990 -20.000000 0.250000 0.000000 -1.000000 0.000000 0.000000 0.000000 -1.000000 1.000000 0.000000 0.000000 39789.dat
0 STEP
0 NOFILE
